<mxfile host="app.diagrams.net" modified="2023-09-30T20:21:00.339Z" agent="Mozilla/5.0 (Windows NT 10.0; Win64; x64) AppleWebKit/537.36 (KHTML, like Gecko) Chrome/117.0.0.0 Safari/537.36 Edg/117.0.2045.43" etag="8qnXqSJFoZUnGbavxDZu" version="22.0.0" type="device">
  <diagram name="Page-1" id="lNnUNEJ4t3xAOpOKaOEy">
    <mxGraphModel dx="1489" dy="813" grid="1" gridSize="10" guides="1" tooltips="1" connect="1" arrows="1" fold="1" page="1" pageScale="1" pageWidth="1654" pageHeight="1169" math="0" shadow="0">
      <root>
        <mxCell id="0" />
        <mxCell id="1" parent="0" />
        <mxCell id="aI4RM0p-WfsoR8eo8V1X-2" style="edgeStyle=orthogonalEdgeStyle;rounded=0;orthogonalLoop=1;jettySize=auto;html=1;" edge="1" parent="1" source="aI4RM0p-WfsoR8eo8V1X-1">
          <mxGeometry relative="1" as="geometry">
            <mxPoint x="655" y="199.9999999999999" as="targetPoint" />
          </mxGeometry>
        </mxCell>
        <mxCell id="aI4RM0p-WfsoR8eo8V1X-1" value="START" style="ellipse;whiteSpace=wrap;html=1;" vertex="1" parent="1">
          <mxGeometry x="570" y="40" width="170" height="110" as="geometry" />
        </mxCell>
        <mxCell id="aI4RM0p-WfsoR8eo8V1X-4" style="edgeStyle=orthogonalEdgeStyle;rounded=0;orthogonalLoop=1;jettySize=auto;html=1;" edge="1" parent="1">
          <mxGeometry relative="1" as="geometry">
            <mxPoint x="655" y="320" as="targetPoint" />
            <mxPoint x="655" y="280" as="sourcePoint" />
          </mxGeometry>
        </mxCell>
        <mxCell id="aI4RM0p-WfsoR8eo8V1X-5" value="&lt;br&gt;&lt;span style=&quot;color: rgb(0, 0, 0); font-family: Helvetica; font-size: 12px; font-style: normal; font-variant-ligatures: normal; font-variant-caps: normal; font-weight: 400; letter-spacing: normal; orphans: 2; text-align: center; text-indent: 0px; text-transform: none; widows: 2; word-spacing: 0px; -webkit-text-stroke-width: 0px; background-color: rgb(251, 251, 251); text-decoration-thickness: initial; text-decoration-style: initial; text-decoration-color: initial; float: none; display: inline !important;&quot;&gt;String jnsSenjata,&amp;nbsp;&lt;/span&gt;&lt;br style=&quot;border-color: var(--border-color); color: rgb(0, 0, 0); font-family: Helvetica; font-size: 12px; font-style: normal; font-variant-ligatures: normal; font-variant-caps: normal; font-weight: 400; letter-spacing: normal; orphans: 2; text-align: center; text-indent: 0px; text-transform: none; widows: 2; word-spacing: 0px; -webkit-text-stroke-width: 0px; background-color: rgb(251, 251, 251); text-decoration-thickness: initial; text-decoration-style: initial; text-decoration-color: initial;&quot;&gt;&lt;span style=&quot;color: rgb(0, 0, 0); font-family: Helvetica; font-size: 12px; font-style: normal; font-variant-ligatures: normal; font-variant-caps: normal; font-weight: 400; letter-spacing: normal; orphans: 2; text-align: center; text-indent: 0px; text-transform: none; widows: 2; word-spacing: 0px; -webkit-text-stroke-width: 0px; background-color: rgb(251, 251, 251); text-decoration-thickness: initial; text-decoration-style: initial; text-decoration-color: initial; float: none; display: inline !important;&quot;&gt;srnSenjarata&lt;br&gt;int jrkSerangan&amp;nbsp;&lt;/span&gt;&lt;br&gt;" style="shape=hexagon;perimeter=hexagonPerimeter2;whiteSpace=wrap;html=1;fixedSize=1;" vertex="1" parent="1">
          <mxGeometry x="576.25" y="200" width="157.5" height="80" as="geometry" />
        </mxCell>
        <mxCell id="aI4RM0p-WfsoR8eo8V1X-8" style="edgeStyle=orthogonalEdgeStyle;rounded=0;orthogonalLoop=1;jettySize=auto;html=1;entryX=0.5;entryY=0;entryDx=0;entryDy=0;" edge="1" parent="1" source="aI4RM0p-WfsoR8eo8V1X-6" target="aI4RM0p-WfsoR8eo8V1X-7">
          <mxGeometry relative="1" as="geometry" />
        </mxCell>
        <mxCell id="aI4RM0p-WfsoR8eo8V1X-6" value="input jarak serangan" style="shape=parallelogram;perimeter=parallelogramPerimeter;whiteSpace=wrap;html=1;fixedSize=1;" vertex="1" parent="1">
          <mxGeometry x="545" y="320" width="220" height="60" as="geometry" />
        </mxCell>
        <mxCell id="aI4RM0p-WfsoR8eo8V1X-11" value="IYA" style="edgeStyle=orthogonalEdgeStyle;rounded=0;orthogonalLoop=1;jettySize=auto;html=1;entryX=0.5;entryY=0;entryDx=0;entryDy=0;" edge="1" parent="1" source="aI4RM0p-WfsoR8eo8V1X-7" target="aI4RM0p-WfsoR8eo8V1X-10">
          <mxGeometry relative="1" as="geometry" />
        </mxCell>
        <mxCell id="aI4RM0p-WfsoR8eo8V1X-12" value="TIDAK" style="edgeStyle=orthogonalEdgeStyle;rounded=0;orthogonalLoop=1;jettySize=auto;html=1;entryX=0;entryY=0.5;entryDx=0;entryDy=0;" edge="1" parent="1" source="aI4RM0p-WfsoR8eo8V1X-7" target="aI4RM0p-WfsoR8eo8V1X-13">
          <mxGeometry relative="1" as="geometry">
            <mxPoint x="770" y="485" as="targetPoint" />
          </mxGeometry>
        </mxCell>
        <mxCell id="aI4RM0p-WfsoR8eo8V1X-7" value="jrkSerangan&amp;lt;=5" style="rhombus;whiteSpace=wrap;html=1;" vertex="1" parent="1">
          <mxGeometry x="585" y="420" width="140" height="130" as="geometry" />
        </mxCell>
        <mxCell id="aI4RM0p-WfsoR8eo8V1X-21" style="edgeStyle=orthogonalEdgeStyle;rounded=0;orthogonalLoop=1;jettySize=auto;html=1;entryX=0.5;entryY=0;entryDx=0;entryDy=0;" edge="1" parent="1" source="aI4RM0p-WfsoR8eo8V1X-10" target="aI4RM0p-WfsoR8eo8V1X-25">
          <mxGeometry relative="1" as="geometry">
            <mxPoint x="765" y="720" as="targetPoint" />
          </mxGeometry>
        </mxCell>
        <mxCell id="aI4RM0p-WfsoR8eo8V1X-10" value="jnsSenjata=melee weapon" style="rounded=0;whiteSpace=wrap;html=1;" vertex="1" parent="1">
          <mxGeometry x="430" y="590" width="140" height="70" as="geometry" />
        </mxCell>
        <mxCell id="aI4RM0p-WfsoR8eo8V1X-15" value="IYA" style="edgeStyle=orthogonalEdgeStyle;rounded=0;orthogonalLoop=1;jettySize=auto;html=1;" edge="1" parent="1" source="aI4RM0p-WfsoR8eo8V1X-13" target="aI4RM0p-WfsoR8eo8V1X-14">
          <mxGeometry relative="1" as="geometry" />
        </mxCell>
        <mxCell id="aI4RM0p-WfsoR8eo8V1X-18" value="TIDAK" style="edgeStyle=orthogonalEdgeStyle;rounded=0;orthogonalLoop=1;jettySize=auto;html=1;entryX=0.5;entryY=0;entryDx=0;entryDy=0;" edge="1" parent="1" source="aI4RM0p-WfsoR8eo8V1X-13" target="aI4RM0p-WfsoR8eo8V1X-17">
          <mxGeometry relative="1" as="geometry" />
        </mxCell>
        <mxCell id="aI4RM0p-WfsoR8eo8V1X-13" value="jrkSerangan &lt;br&gt;5&amp;lt;&amp;amp;&amp;amp;&amp;lt;1000" style="rhombus;whiteSpace=wrap;html=1;" vertex="1" parent="1">
          <mxGeometry x="790" y="420" width="140" height="130" as="geometry" />
        </mxCell>
        <mxCell id="aI4RM0p-WfsoR8eo8V1X-22" style="edgeStyle=orthogonalEdgeStyle;rounded=0;orthogonalLoop=1;jettySize=auto;html=1;entryX=0.5;entryY=0;entryDx=0;entryDy=0;" edge="1" parent="1" source="aI4RM0p-WfsoR8eo8V1X-14" target="aI4RM0p-WfsoR8eo8V1X-25">
          <mxGeometry relative="1" as="geometry">
            <mxPoint x="765" y="720" as="targetPoint" />
          </mxGeometry>
        </mxCell>
        <mxCell id="aI4RM0p-WfsoR8eo8V1X-14" value="jnsSenjata=melee weapon" style="rounded=0;whiteSpace=wrap;html=1;" vertex="1" parent="1">
          <mxGeometry x="790" y="590" width="140" height="70" as="geometry" />
        </mxCell>
        <mxCell id="aI4RM0p-WfsoR8eo8V1X-24" style="edgeStyle=orthogonalEdgeStyle;rounded=0;orthogonalLoop=1;jettySize=auto;html=1;entryX=0.5;entryY=0;entryDx=0;entryDy=0;" edge="1" parent="1" source="aI4RM0p-WfsoR8eo8V1X-17" target="aI4RM0p-WfsoR8eo8V1X-25">
          <mxGeometry relative="1" as="geometry">
            <mxPoint x="765" y="720" as="targetPoint" />
          </mxGeometry>
        </mxCell>
        <mxCell id="aI4RM0p-WfsoR8eo8V1X-17" value="jnsSenjata=error" style="rounded=0;whiteSpace=wrap;html=1;" vertex="1" parent="1">
          <mxGeometry x="1020" y="510" width="140" height="70" as="geometry" />
        </mxCell>
        <mxCell id="aI4RM0p-WfsoR8eo8V1X-27" style="edgeStyle=orthogonalEdgeStyle;rounded=0;orthogonalLoop=1;jettySize=auto;html=1;entryX=0.5;entryY=0;entryDx=0;entryDy=0;" edge="1" parent="1" source="aI4RM0p-WfsoR8eo8V1X-25" target="aI4RM0p-WfsoR8eo8V1X-26">
          <mxGeometry relative="1" as="geometry" />
        </mxCell>
        <mxCell id="aI4RM0p-WfsoR8eo8V1X-25" value="srnSenjata=jnsSenjata" style="rounded=0;whiteSpace=wrap;html=1;" vertex="1" parent="1">
          <mxGeometry x="690" y="720" width="150" height="80" as="geometry" />
        </mxCell>
        <mxCell id="aI4RM0p-WfsoR8eo8V1X-29" style="edgeStyle=orthogonalEdgeStyle;rounded=0;orthogonalLoop=1;jettySize=auto;html=1;entryX=0.5;entryY=0;entryDx=0;entryDy=0;" edge="1" parent="1" source="aI4RM0p-WfsoR8eo8V1X-26" target="aI4RM0p-WfsoR8eo8V1X-28">
          <mxGeometry relative="1" as="geometry" />
        </mxCell>
        <mxCell id="aI4RM0p-WfsoR8eo8V1X-26" value="output srnSenjata=jnsSenjata" style="shape=parallelogram;perimeter=parallelogramPerimeter;whiteSpace=wrap;html=1;fixedSize=1;" vertex="1" parent="1">
          <mxGeometry x="662.5" y="850" width="205" height="100" as="geometry" />
        </mxCell>
        <mxCell id="aI4RM0p-WfsoR8eo8V1X-28" value="FINISH" style="ellipse;whiteSpace=wrap;html=1;" vertex="1" parent="1">
          <mxGeometry x="697.5" y="1000" width="135" height="90" as="geometry" />
        </mxCell>
      </root>
    </mxGraphModel>
  </diagram>
</mxfile>
